<svg id="Layer_1" data-name="Layer 1" xmlns="http://www.w3.org/2000/svg" viewBox="0 0 360 360"><defs><style>.cls-1{fill:#93bc40;}.cls-2{fill:#fff;}</style></defs><title>icons_V2</title><rect class="cls-1" width="360" height="360"/><polygon class="cls-2" points="161.366 75.404 161.366 128.769 108 128.769 108 170.634 161.366 170.634 161.366 224 203.23 224 203.23 170.634 256.596 170.634 256.596 128.769 203.23 128.769 203.23 75.404 161.366 75.404"/><path class="cls-2" d="M248.551,284a6.8,6.8,0,0,0,2.72-.488,3.811,3.811,0,0,0,1.68-1.3,3.145,3.145,0,0,0,.56-1.824,2.647,2.647,0,0,0-.616-1.848,3.66,3.66,0,0,0-1.456-.992,15.364,15.364,0,0,0-2.12-.584,9.312,9.312,0,0,1-1.648-.464.722.722,0,0,1-.512-.672.839.839,0,0,1,.432-.728,2.6,2.6,0,0,1,1.376-.28,6.517,6.517,0,0,1,3.1.864l.976-2.352a6.65,6.65,0,0,0-1.888-.728,9.638,9.638,0,0,0-2.176-.248,6.885,6.885,0,0,0-2.728.48,3.755,3.755,0,0,0-1.672,1.3,3.214,3.214,0,0,0-.56,1.848,2.7,2.7,0,0,0,.608,1.856,3.558,3.558,0,0,0,1.456,1,15.965,15.965,0,0,0,2.112.584,9.634,9.634,0,0,1,1.672.488.755.755,0,0,1,.52.712q0,.912-1.824.912a6.631,6.631,0,0,1-1.952-.3,6.745,6.745,0,0,1-1.744-.8l-1.04,2.336a6.511,6.511,0,0,0,2.08.9,10.362,10.362,0,0,0,2.64.336m-11.679-.224h3.168v-8.688h3.424v-2.512H233.432v2.512h3.44Zm-7.728-11.2v5.968l-4.944-5.968h-2.608v11.2h3.1v-5.968l4.944,5.968h2.608v-11.2Zm-15.168,8.752V279.28h4.976v-2.368h-4.976v-1.888h5.648v-2.448H210.84v11.2h8.992v-2.448Zm-5.376,2.448-.032-11.2H205.96l-3.84,6.464-3.936-6.464h-2.608v11.2H198.5V278l2.864,4.672h1.408l2.88-4.832.032,5.936Zm-20.64-2.448V279.28h4.976v-2.368H187.96v-1.888h5.648v-2.448h-8.784v11.2h8.992v-2.448ZM178.6,284a6.8,6.8,0,0,0,2.768-.544,5.318,5.318,0,0,0,2.048-1.568l-2.016-1.824a3.317,3.317,0,0,1-2.64,1.312,3.253,3.253,0,0,1-1.624-.4,2.77,2.77,0,0,1-1.1-1.128,3.762,3.762,0,0,1,0-3.344,2.776,2.776,0,0,1,1.1-1.128,3.253,3.253,0,0,1,1.624-.4,3.317,3.317,0,0,1,2.64,1.312l2.016-1.824a5.328,5.328,0,0,0-2.048-1.568,6.779,6.779,0,0,0-2.768-.544,6.625,6.625,0,0,0-3.16.744,5.559,5.559,0,0,0-2.2,2.072,6.055,6.055,0,0,0,0,6.016,5.552,5.552,0,0,0,2.2,2.072,6.625,6.625,0,0,0,3.16.744m-10.928-11.424v5.968l-4.944-5.968H160.12v11.2h3.1v-5.968l4.944,5.968h2.608v-11.2Zm-16.432,6.688,1.44-3.584,1.44,3.584Zm4.688,4.512h3.3l-4.96-11.2h-3.12l-4.944,11.2h3.232l.88-2.176h4.736Zm-13.792-11.2v4.208h-4.32v-4.208h-3.168v11.2h3.168v-4.368h4.32v4.368H145.3v-11.2Zm-12.832,0v5.968l-4.944-5.968h-2.608v11.2h3.1v-5.968l4.944,5.968h2.608v-11.2Zm-15.168,8.752V279.28h4.976v-2.368h-4.976v-1.888h5.648v-2.448H111v11.2h8.992v-2.448Z"/></svg>