<svg id="Layer_1" data-name="Layer 1" xmlns="http://www.w3.org/2000/svg" xmlns:xlink="http://www.w3.org/1999/xlink" viewBox="0 0 360 360"><defs><style>.cls-1{fill:none;}.cls-2{fill:#93bc40;}.cls-3{clip-path:url(#clip-path);}.cls-4{fill:#003d58;}</style><clipPath id="clip-path"><rect class="cls-1" x="96" y="272.352" width="177.407" height="11.648"/></clipPath></defs><title>icons_V2</title><path class="cls-2" d="M121.205,149.892l22.509-28.2,22.509,28.2-7.212,5.607-10.627-13.356v38.165h-9.379V142.143L128.4,155.5ZM108,226h71.428V76H108Z"/><path class="cls-2" d="M215.49,121.692h9.38v38.165l10.6-13.356,7.2,5.606-22.508,28.2-22.509-28.2,7.211-5.606,10.627,13.356ZM184.446,226h71.428V76H184.446Z"/><g class="cls-3"><path class="cls-4" d="M268.447,284a6.8,6.8,0,0,0,2.72-.488,3.822,3.822,0,0,0,1.68-1.3,3.153,3.153,0,0,0,.56-1.824,2.653,2.653,0,0,0-.616-1.848,3.667,3.667,0,0,0-1.456-.992,15.4,15.4,0,0,0-2.12-.584,9.26,9.26,0,0,1-1.648-.464.72.72,0,0,1-.512-.672.839.839,0,0,1,.432-.728,2.607,2.607,0,0,1,1.376-.28,6.523,6.523,0,0,1,3.1.864l.976-2.352a6.691,6.691,0,0,0-1.888-.728,9.644,9.644,0,0,0-2.176-.248,6.879,6.879,0,0,0-2.728.48,3.744,3.744,0,0,0-1.672,1.3,3.209,3.209,0,0,0-.56,1.848,2.7,2.7,0,0,0,.608,1.856,3.545,3.545,0,0,0,1.456,1,15.879,15.879,0,0,0,2.112.584,9.662,9.662,0,0,1,1.672.488.756.756,0,0,1,.52.712q0,.912-1.824.912a6.626,6.626,0,0,1-1.952-.3,6.714,6.714,0,0,1-1.744-.8l-1.04,2.336a6.491,6.491,0,0,0,2.08.9,10.351,10.351,0,0,0,2.64.336m-8.88-7.28a1.5,1.5,0,0,1-.5,1.208,2.213,2.213,0,0,1-1.472.424h-1.76v-3.28h1.76a2.187,2.187,0,0,1,1.472.432,1.528,1.528,0,0,1,.5,1.216m.032,7.056h3.392l-2.416-3.52a3.839,3.839,0,0,0,1.624-1.416,3.9,3.9,0,0,0,.568-2.12,3.794,3.794,0,0,0-2.336-3.64,6.39,6.39,0,0,0-2.64-.5h-5.12v11.2h3.168V280.8h1.728Zm-14.816-2.4a2.993,2.993,0,0,1-1.536-.4,2.868,2.868,0,0,1-1.088-1.128,3.694,3.694,0,0,1,0-3.344,2.875,2.875,0,0,1,1.088-1.128,3.149,3.149,0,0,1,3.072,0,2.889,2.889,0,0,1,1.088,1.128,3.694,3.694,0,0,1,0,3.344,2.882,2.882,0,0,1-1.088,1.128,3,3,0,0,1-1.536.4m0,2.624a6.7,6.7,0,0,0,3.192-.752,5.727,5.727,0,0,0,0-10.144,7.151,7.151,0,0,0-6.384,0,5.727,5.727,0,0,0,0,10.144,6.7,6.7,0,0,0,3.192.752m-13.264-.224h3.168v-8.688h3.424v-2.512H228.079v2.512h3.44Zm-10.7-4.512,1.44-3.584,1.44,3.584Zm4.688,4.512h3.3l-4.96-11.2h-3.12l-4.944,11.2h3.232l.88-2.176h4.736Zm-11.792-11.2-3.1,7.3-3.04-7.3h-3.424l4.784,11.2h3.12l4.8-11.2Zm-15.68,8.752V279.28h4.976v-2.368h-4.976v-1.888h5.648v-2.448H194.9v11.2h8.992v-2.448Zm-12.9,2.448h8.512v-2.512H188.3v-8.688h-3.168Zm-7.616-2.448V279.28H182.5v-2.368h-4.976v-1.888h5.648v-2.448h-8.784v11.2h8.992v-2.448Zm-15.408,0V279.28h4.976v-2.368h-4.976v-1.888h5.648v-2.448h-8.784v11.2h8.992v-2.448ZM152.751,284a6.793,6.793,0,0,0,2.768-.544,5.311,5.311,0,0,0,2.048-1.568l-2.016-1.824a3.314,3.314,0,0,1-2.64,1.312,3.256,3.256,0,0,1-1.624-.4,2.782,2.782,0,0,1-1.1-1.128,3.762,3.762,0,0,1,0-3.344,2.789,2.789,0,0,1,1.1-1.128,3.256,3.256,0,0,1,1.624-.4,3.314,3.314,0,0,1,2.64,1.312l2.016-1.824a5.321,5.321,0,0,0-2.048-1.568,6.776,6.776,0,0,0-2.768-.544,6.631,6.631,0,0,0-3.16.744,5.572,5.572,0,0,0-2.2,2.072,6.055,6.055,0,0,0,0,6.016,5.565,5.565,0,0,0,2.2,2.072,6.631,6.631,0,0,0,3.16.744m-11.008-.224h3.168v-11.2h-3.168Zm-3.791-11.2-3.1,7.3-3.04-7.3h-3.424l4.784,11.2h3.12l4.8-11.2Zm-13.168,4.144a1.5,1.5,0,0,1-.5,1.208,2.213,2.213,0,0,1-1.472.424h-1.76v-3.28h1.76a2.187,2.187,0,0,1,1.472.432,1.528,1.528,0,0,1,.5,1.216m.032,7.056h3.392l-2.416-3.52a3.839,3.839,0,0,0,1.624-1.416,3.9,3.9,0,0,0,.568-2.12,3.794,3.794,0,0,0-2.336-3.64,6.39,6.39,0,0,0-2.64-.5h-5.12v11.2h3.168V280.8h1.728Zm-14.544-2.448V279.28h4.976v-2.368h-4.976v-1.888h5.648v-2.448h-8.784v11.2h8.992v-2.448ZM100.72,284a6.8,6.8,0,0,0,2.72-.488,3.822,3.822,0,0,0,1.68-1.3,3.153,3.153,0,0,0,.56-1.824,2.648,2.648,0,0,0-.616-1.848,3.667,3.667,0,0,0-1.456-.992,15.4,15.4,0,0,0-2.12-.584,9.26,9.26,0,0,1-1.648-.464.72.72,0,0,1-.512-.672.839.839,0,0,1,.432-.728,2.607,2.607,0,0,1,1.376-.28,6.523,6.523,0,0,1,3.1.864l.976-2.352a6.691,6.691,0,0,0-1.888-.728,9.644,9.644,0,0,0-2.176-.248,6.879,6.879,0,0,0-2.728.48,3.744,3.744,0,0,0-1.672,1.3,3.209,3.209,0,0,0-.56,1.848,2.7,2.7,0,0,0,.608,1.856,3.545,3.545,0,0,0,1.456,1,15.879,15.879,0,0,0,2.112.584,9.662,9.662,0,0,1,1.672.488.756.756,0,0,1,.52.712q0,.912-1.824.912a6.626,6.626,0,0,1-1.952-.3,6.714,6.714,0,0,1-1.744-.8L96,282.768a6.5,6.5,0,0,0,2.08.9,10.351,10.351,0,0,0,2.64.336"/></g></svg>