<svg id="Layer_1" data-name="Layer 1" xmlns="http://www.w3.org/2000/svg" viewBox="0 0 360 360"><defs><style>.cls-1{fill:#93bc40;}.cls-2{fill:#fff;}</style></defs><title>icons_V2</title><rect class="cls-1" width="360" height="360"/><polygon class="cls-2" points="176.522 76.165 176.522 95.585 161.786 87.266 157.347 95.406 176.522 106.348 176.522 141.268 146.213 123.562 146.387 101.677 137.092 101.677 136.926 118.138 120.602 108.645 116 116.779 132.489 126.44 118.091 135.173 122.861 143.131 141.697 131.861 171.918 149.41 141.697 167.134 122.861 155.848 118.091 163.822 132.489 172.468 116 182.218 120.602 190.359 136.926 180.857 137.092 197.32 146.387 197.141 146.213 175.277 176.522 157.729 176.522 192.471 157.347 203.412 161.786 211.715 176.522 203.254 176.522 223 185.808 223 185.808 203.58 200.038 211.715 204.478 203.412 185.808 192.814 185.808 157.553 215.438 174.932 215.273 197.141 224.481 197.32 224.733 180.267 241.475 190.191 246.165 182.06 229.503 172.309 243.567 163.822 238.964 155.848 220.215 166.976 190.413 149.41 220.215 132.031 238.964 143.131 243.567 135.173 229.503 126.695 246.165 116.947 241.475 108.803 224.733 118.642 224.481 101.677 215.273 101.677 215.438 124.073 185.808 141.454 185.808 106.181 204.478 95.406 200.038 87.266 185.808 95.406 185.808 76.165 176.522 76.165"/><path class="cls-2" d="M281.662,299.008a4.055,4.055,0,0,1-1.712.368,3.283,3.283,0,0,1-1.648-.408,2.86,2.86,0,0,1-1.12-1.136,3.376,3.376,0,0,1-.4-1.656,3.012,3.012,0,0,1,3.2-3.2,3.555,3.555,0,0,1,2.72,1.248l2.016-1.824a5.434,5.434,0,0,0-2.08-1.52,7.165,7.165,0,0,0-2.816-.528,6.838,6.838,0,0,0-3.216.744,5.52,5.52,0,0,0-2.224,2.072,6.055,6.055,0,0,0,0,6.016,5.541,5.541,0,0,0,2.208,2.072,6.672,6.672,0,0,0,3.168.744,8.8,8.8,0,0,0,2.5-.368,7.285,7.285,0,0,0,2.208-1.056v-4.64h-2.8Zm-12.848-8.432v5.968l-4.944-5.968h-2.608v11.2h3.1v-5.968l4.944,5.968h2.608v-11.2Zm-12.976,11.2h3.168v-11.2h-3.168Zm-5.344-11.2v5.968l-4.944-5.968h-2.608v11.2h3.1v-5.968l4.944,5.968H253.6v-11.2Zm-15.44,8.8a3,3,0,0,1-1.536-.4,2.875,2.875,0,0,1-1.088-1.128,3.694,3.694,0,0,1,0-3.344,2.882,2.882,0,0,1,1.088-1.128,3.149,3.149,0,0,1,3.072,0,2.889,2.889,0,0,1,1.088,1.128,3.694,3.694,0,0,1,0,3.344,2.882,2.882,0,0,1-1.088,1.128,3,3,0,0,1-1.536.4m0,2.624a6.7,6.7,0,0,0,3.192-.752,5.727,5.727,0,0,0,0-10.144,7.151,7.151,0,0,0-6.384,0,5.727,5.727,0,0,0,0,10.144,6.7,6.7,0,0,0,3.192.752m-11.072-.224h3.168v-11.2h-3.168Zm-7.776,0h3.168v-8.688H222.8v-2.512H212.766v2.512h3.44Zm-7.808,0h3.168v-11.2H208.4Zm-10.047-2.528V293.1h2a3.248,3.248,0,0,1,2.312.816,3.354,3.354,0,0,1,0,4.512,3.248,3.248,0,0,1-2.312.816Zm-3.168,2.528h5.3a7.413,7.413,0,0,0,3.264-.688,5.18,5.18,0,0,0,2.208-1.952,5.98,5.98,0,0,0,0-5.92,5.193,5.193,0,0,0-2.208-1.952,7.413,7.413,0,0,0-3.264-.688h-5.3Zm-5.344-11.2v5.968l-4.944-5.968h-2.608v11.2h3.1v-5.968l4.944,5.968h2.608v-11.2Zm-15.44,8.8a2.993,2.993,0,0,1-1.536-.4,2.868,2.868,0,0,1-1.088-1.128,3.694,3.694,0,0,1,0-3.344,2.875,2.875,0,0,1,1.088-1.128,3.149,3.149,0,0,1,3.072,0,2.889,2.889,0,0,1,1.088,1.128,3.694,3.694,0,0,1,0,3.344,2.882,2.882,0,0,1-1.088,1.128,3,3,0,0,1-1.536.4m0,2.624a6.7,6.7,0,0,0,3.192-.752,5.727,5.727,0,0,0,0-10.144,7.151,7.151,0,0,0-6.384,0,5.727,5.727,0,0,0,0,10.144A6.7,6.7,0,0,0,174.4,302m-11.632,0a6.8,6.8,0,0,0,2.768-.544,5.328,5.328,0,0,0,2.048-1.568l-2.016-1.824a3.317,3.317,0,0,1-2.64,1.312,3.253,3.253,0,0,1-1.624-.4,2.77,2.77,0,0,1-1.1-1.128,3.762,3.762,0,0,1,0-3.344,2.776,2.776,0,0,1,1.1-1.128,3.253,3.253,0,0,1,1.624-.4,3.317,3.317,0,0,1,2.64,1.312l2.016-1.824a5.328,5.328,0,0,0-2.048-1.568,6.779,6.779,0,0,0-2.768-.544,6.625,6.625,0,0,0-3.16.744,5.559,5.559,0,0,0-2.2,2.072,6.055,6.055,0,0,0,0,6.016,5.552,5.552,0,0,0,2.2,2.072,6.625,6.625,0,0,0,3.16.744m-15.184-7.28a1.5,1.5,0,0,1-.5,1.208,2.21,2.21,0,0,1-1.472.424h-1.76v-3.28h1.76a2.183,2.183,0,0,1,1.472.432,1.525,1.525,0,0,1,.5,1.216m.032,7.056h3.392l-2.416-3.52a3.833,3.833,0,0,0,1.624-1.416,3.9,3.9,0,0,0,.568-2.12,3.794,3.794,0,0,0-2.336-3.64,6.384,6.384,0,0,0-2.64-.5h-5.12v11.2h3.168V298.8h1.728Zm-12.352,0h3.168v-11.2h-3.168Zm-8.879-4.512,1.44-3.584,1.44,3.584Zm4.688,4.512h3.3l-4.96-11.2h-3.12l-4.944,11.2h3.232l.88-2.176h4.736Zm-23.088-2.528V293.1h2a3.248,3.248,0,0,1,2.312.816,3.354,3.354,0,0,1,0,4.512,3.248,3.248,0,0,1-2.312.816Zm-3.168,2.528h5.3a7.413,7.413,0,0,0,3.264-.688,5.18,5.18,0,0,0,2.208-1.952,5.98,5.98,0,0,0,0-5.92,5.193,5.193,0,0,0-2.208-1.952,7.413,7.413,0,0,0-3.264-.688h-5.3Zm-5.344-11.2v5.968l-4.944-5.968H91.92v11.2h3.1v-5.968l4.944,5.968h2.608v-11.2ZM83.04,297.264l1.44-3.584,1.44,3.584Zm4.688,4.512h3.3l-4.96-11.2h-3.12L78,301.776h3.232l.88-2.176h4.736Z"/><path class="cls-2" d="M278.054,272.636V278.6l-4.944-5.968H270.5v11.2h3.1v-5.968l4.944,5.968h2.608v-11.2Zm-15.44,8.8a3,3,0,0,1-1.536-.4,2.882,2.882,0,0,1-1.088-1.128,3.694,3.694,0,0,1,0-3.344,2.882,2.882,0,0,1,1.088-1.128,3.149,3.149,0,0,1,3.072,0,2.882,2.882,0,0,1,1.088,1.128,3.694,3.694,0,0,1,0,3.344,2.882,2.882,0,0,1-1.088,1.128,3,3,0,0,1-1.536.4m0,2.624a6.7,6.7,0,0,0,3.192-.752,5.727,5.727,0,0,0,0-10.144,7.151,7.151,0,0,0-6.384,0,5.727,5.727,0,0,0,0,10.144,6.7,6.7,0,0,0,3.192.752m-11.072-.224h3.168v-11.2h-3.168Zm-7.776,0h3.168v-8.688h3.425v-2.512H240.326v2.512h3.44Zm-10.7-4.512,1.44-3.584,1.44,3.584Zm4.688,4.512h3.3l-4.96-11.2h-3.12l-4.944,11.2h3.232l.88-2.176h4.736Zm-18.271,0h8.512v-2.512h-5.344v-8.688h-3.168Zm-5.424,0h3.168v-11.2h-3.168Zm-7.776,0h3.168v-8.688h3.424v-2.512H202.839v2.512h3.44Zm-7.728-11.2V278.6l-4.944-5.968H191v11.2h3.1v-5.968l4.944,5.968h2.608v-11.2Zm-15.168,8.752V279.34h4.976v-2.368h-4.976v-1.888h5.648v-2.448h-8.784v11.2h8.992v-2.448Zm-6.928-8.752-3.1,7.3-3.04-7.3h-3.424l4.784,11.2h3.12l4.8-11.2ZM160.2,280.38a1.809,1.809,0,0,0-1.312.5,1.722,1.722,0,0,0-.512,1.3,1.79,1.79,0,0,0,.248.952,1.564,1.564,0,0,0,.7.616l-.752,2.608h1.9l1.008-2.336a7.6,7.6,0,0,0,.432-1.1,2.905,2.905,0,0,0,.1-.736,1.725,1.725,0,0,0-.512-1.3,1.792,1.792,0,0,0-1.3-.5m-6.128.688a4.055,4.055,0,0,1-1.712.368,3.283,3.283,0,0,1-1.648-.408,2.86,2.86,0,0,1-1.12-1.136,3.376,3.376,0,0,1-.4-1.656,3.012,3.012,0,0,1,3.2-3.2,3.555,3.555,0,0,1,2.72,1.248l2.016-1.824a5.434,5.434,0,0,0-2.08-1.52,7.165,7.165,0,0,0-2.816-.528,6.838,6.838,0,0,0-3.216.744,5.52,5.52,0,0,0-2.224,2.072,6.055,6.055,0,0,0,0,6.016A5.548,5.548,0,0,0,149,283.316a6.672,6.672,0,0,0,3.168.744,8.8,8.8,0,0,0,2.5-.368,7.285,7.285,0,0,0,2.208-1.056V278h-2.8Zm-12.848-8.432V278.6l-4.944-5.968h-2.608v11.2h3.1v-5.968l4.944,5.968h2.608v-11.2Zm-12.976,11.2h3.168v-11.2h-3.168Zm-7.776,0h3.168v-8.688h3.424v-2.512H117.032v2.512h3.44Zm-10.7-4.512,1.44-3.584,1.44,3.584Zm4.688,4.512h3.3l-4.96-11.2h-3.12l-4.944,11.2h3.232l.88-2.176h4.736Zm-16-2.448V279.34h4.976v-2.368H98.456v-1.888H104.1v-2.448H95.32v11.2h8.992v-2.448Zm-8.544-8.752v4.208h-4.32v-4.208H82.424v11.2h3.168v-4.368h4.32v4.368H93.08v-11.2Z"/></svg>