<svg id="Layer_1" data-name="Layer 1" xmlns="http://www.w3.org/2000/svg" viewBox="0 0 360 360"><defs><style>.cls-1{fill:#93bc40;}.cls-2{fill:#fff;}</style></defs><title>icons_V2</title><rect class="cls-1" width="360" height="360"/><path class="cls-2" d="M193.19,174.63H176.614V120.475H193.19Zm0,25.9H176.614V183.958H193.19Zm79.05,11.641L193.848,76.4a9.884,9.884,0,0,0-17.119,0L98.34,212.175A9.884,9.884,0,0,0,106.9,227h156.78a9.884,9.884,0,0,0,8.561-14.825"/><path class="cls-2" d="M285.958,284a6.8,6.8,0,0,0,2.72-.488,3.811,3.811,0,0,0,1.68-1.3,3.153,3.153,0,0,0,.56-1.824,2.648,2.648,0,0,0-.616-1.848,3.667,3.667,0,0,0-1.456-.992,15.4,15.4,0,0,0-2.12-.584,9.286,9.286,0,0,1-1.648-.464.722.722,0,0,1-.512-.672A.839.839,0,0,1,285,275.1a2.609,2.609,0,0,1,1.376-.28,6.52,6.52,0,0,1,3.1.864l.976-2.352a6.68,6.68,0,0,0-1.888-.728,9.644,9.644,0,0,0-2.176-.248,6.882,6.882,0,0,0-2.728.48,3.75,3.75,0,0,0-1.672,1.3,3.216,3.216,0,0,0-.56,1.848,2.7,2.7,0,0,0,.608,1.856,3.552,3.552,0,0,0,1.456,1,15.879,15.879,0,0,0,2.112.584,9.662,9.662,0,0,1,1.672.488.755.755,0,0,1,.52.712q0,.912-1.824.912a6.626,6.626,0,0,1-1.952-.3,6.73,6.73,0,0,1-1.744-.8l-1.04,2.336a6.5,6.5,0,0,0,2.08.9,10.351,10.351,0,0,0,2.64.336m-13.664-.224h8.512v-2.512h-5.344v-8.688h-3.168Zm-5.424,0h3.168v-11.2H266.87Zm-8.88-4.512,1.44-3.584,1.44,3.584Zm4.689,4.512h3.3l-4.959-11.2h-3.121l-4.944,11.2h3.232l.88-2.176H261.8Zm-15.6,0h3.168v-8.688h3.424v-2.512H243.638v2.512h3.44Zm-10-2.448V279.28h4.976v-2.368h-4.976v-1.888h5.648v-2.448h-8.784v11.2h8.992v-2.448Zm-13.183-.08V275.1h2a3.248,3.248,0,0,1,2.312.816,3.354,3.354,0,0,1,0,4.512,3.248,3.248,0,0,1-2.312.816Zm-3.168,2.528h5.3a7.413,7.413,0,0,0,3.264-.688,5.18,5.18,0,0,0,2.208-1.952,5.98,5.98,0,0,0,0-5.92,5.193,5.193,0,0,0-2.208-1.952,7.413,7.413,0,0,0-3.264-.688h-5.3Zm-10-11.2v5.968l-4.944-5.968h-2.608v11.2h3.1v-5.968l4.944,5.968h2.608v-11.2Zm-15.44,8.8a2.993,2.993,0,0,1-1.536-.4,2.868,2.868,0,0,1-1.088-1.128,3.694,3.694,0,0,1,0-3.344,2.875,2.875,0,0,1,1.088-1.128,3.149,3.149,0,0,1,3.072,0,2.889,2.889,0,0,1,1.088,1.128,3.694,3.694,0,0,1,0,3.344,2.882,2.882,0,0,1-1.088,1.128,3,3,0,0,1-1.536.4m0,2.624a6.7,6.7,0,0,0,3.192-.752,5.727,5.727,0,0,0,0-10.144,7.151,7.151,0,0,0-6.384,0,5.727,5.727,0,0,0,0,10.144,6.7,6.7,0,0,0,3.192.752m-11.072-.224h3.168v-11.2h-3.168Zm-7.776,0h3.168v-8.688h3.424v-2.512H173v2.512h3.44Zm-8.512.224a6.793,6.793,0,0,0,2.768-.544,5.311,5.311,0,0,0,2.048-1.568l-2.016-1.824a3.314,3.314,0,0,1-2.64,1.312,3.256,3.256,0,0,1-1.624-.4,2.782,2.782,0,0,1-1.1-1.128,3.762,3.762,0,0,1,0-3.344,2.789,2.789,0,0,1,1.1-1.128,3.256,3.256,0,0,1,1.624-.4,3.314,3.314,0,0,1,2.64,1.312l2.016-1.824A5.321,5.321,0,0,0,170.7,272.9a6.776,6.776,0,0,0-2.768-.544,6.631,6.631,0,0,0-3.16.744,5.572,5.572,0,0,0-2.2,2.072,6.055,6.055,0,0,0,0,6.016,5.565,5.565,0,0,0,2.2,2.072,6.631,6.631,0,0,0,3.16.744m-12.992,0a5.3,5.3,0,0,0,3.88-1.36,5.16,5.16,0,0,0,1.384-3.856v-6.208h-3.12v6.112q0,2.688-2.112,2.688-2.127,0-2.128-2.688v-6.112h-3.168v6.208a5.164,5.164,0,0,0,1.384,3.856,5.3,5.3,0,0,0,3.88,1.36m-10.111-7.28a1.5,1.5,0,0,1-.5,1.208,2.213,2.213,0,0,1-1.472.424H141.1v-3.28h1.76a2.187,2.187,0,0,1,1.472.432,1.528,1.528,0,0,1,.5,1.216m.032,7.056h3.392l-2.416-3.52a3.839,3.839,0,0,0,1.624-1.416,3.9,3.9,0,0,0,.568-2.12,3.794,3.794,0,0,0-2.336-3.64,6.39,6.39,0,0,0-2.64-.5h-5.12v11.2H141.1V280.8h1.728Zm-14.7,0h3.168v-8.688h3.424v-2.512H126.712v2.512h3.44Zm-8.64.224a6.8,6.8,0,0,0,2.72-.488,3.822,3.822,0,0,0,1.68-1.3,3.153,3.153,0,0,0,.56-1.824,2.653,2.653,0,0,0-.616-1.848,3.667,3.667,0,0,0-1.456-.992,15.4,15.4,0,0,0-2.12-.584,9.26,9.26,0,0,1-1.648-.464.72.72,0,0,1-.512-.672.839.839,0,0,1,.432-.728,2.607,2.607,0,0,1,1.376-.28,6.523,6.523,0,0,1,3.1.864l.976-2.352a6.691,6.691,0,0,0-1.888-.728,9.644,9.644,0,0,0-2.176-.248,6.879,6.879,0,0,0-2.728.48,3.744,3.744,0,0,0-1.672,1.3,3.209,3.209,0,0,0-.56,1.848,2.7,2.7,0,0,0,.608,1.856,3.545,3.545,0,0,0,1.456,1,15.879,15.879,0,0,0,2.112.584,9.662,9.662,0,0,1,1.672.488.756.756,0,0,1,.52.712q0,.912-1.824.912a6.626,6.626,0,0,1-1.952-.3,6.714,6.714,0,0,1-1.744-.8l-1.04,2.336a6.491,6.491,0,0,0,2.08.9,10.351,10.351,0,0,0,2.64.336m-9.28-11.424v5.968l-4.944-5.968H104.68v11.2h3.1v-5.968l4.944,5.968h2.608v-11.2Zm-15.44,8.8a2.993,2.993,0,0,1-1.536-.4,2.868,2.868,0,0,1-1.088-1.128,3.694,3.694,0,0,1,0-3.344,2.875,2.875,0,0,1,1.088-1.128,3.149,3.149,0,0,1,3.072,0,2.889,2.889,0,0,1,1.088,1.128,3.694,3.694,0,0,1,0,3.344,2.882,2.882,0,0,1-1.088,1.128,3,3,0,0,1-1.536.4m0,2.624a6.7,6.7,0,0,0,3.192-.752,5.727,5.727,0,0,0,0-10.144,7.151,7.151,0,0,0-6.384,0,5.727,5.727,0,0,0,0,10.144,6.7,6.7,0,0,0,3.192.752M85.16,284a6.793,6.793,0,0,0,2.768-.544,5.318,5.318,0,0,0,2.048-1.568l-2.016-1.824a3.316,3.316,0,0,1-2.64,1.312,3.253,3.253,0,0,1-1.624-.4,2.77,2.77,0,0,1-1.1-1.128,3.762,3.762,0,0,1,0-3.344,2.776,2.776,0,0,1,1.1-1.128,3.253,3.253,0,0,1,1.624-.4,3.316,3.316,0,0,1,2.64,1.312l2.016-1.824a5.328,5.328,0,0,0-2.048-1.568,6.776,6.776,0,0,0-2.768-.544A6.628,6.628,0,0,0,82,273.1a5.559,5.559,0,0,0-2.2,2.072,6.055,6.055,0,0,0,0,6.016,5.552,5.552,0,0,0,2.2,2.072,6.628,6.628,0,0,0,3.16.744"/></svg>