<svg id="Layer_1" data-name="Layer 1" xmlns="http://www.w3.org/2000/svg" viewBox="0 0 360 360"><defs><style>.cls-1{fill:#93bc40;}.cls-2{fill:#fff;}</style></defs><title>icons_V2</title><rect class="cls-1" width="360" height="360"/><path class="cls-2" d="M127.424,181.958V117.319L184.91,85l57.483,32.321v64.639L184.91,214.28ZM184.91,73.278,117,111.456v76.366L184.91,226l67.906-38.178V111.456Z"/><path class="cls-2" d="M185.01,163.4c-7.885,0-14.234-6.183-14.234-13.663A14.141,14.141,0,1,1,185.01,163.4m32.361-19.347-8.09-1.4a18.15,18.15,0,0,0-2.15-4.788l4.812-6.781a1.509,1.509,0,0,0-.2-1.994L206,123.511a1.746,1.746,0,0,0-2.151-.2L196.992,128a23.463,23.463,0,0,0-4.916-2.094l-1.433-7.877a1.973,1.973,0,0,0-1.741-1.3H180.71a1.741,1.741,0,0,0-1.639,1.3l-1.536,8.076a19.437,19.437,0,0,0-4.711,1.9l-6.862-4.487a1.524,1.524,0,0,0-2.15.2l-5.734,5.584a1.514,1.514,0,0,0-.205,2l4.608,6.581a27.67,27.67,0,0,0-1.945,4.788l-8.091,1.4a1.553,1.553,0,0,0-1.332,1.6v8.078a1.428,1.428,0,0,0,1.332,1.394l8.091,1.6a14.592,14.592,0,0,0,2.151,4.586l-4.609,6.583a1.426,1.426,0,0,0,.2,2.092l5.737,5.686a1.748,1.748,0,0,0,2.148.2l6.657-4.489a18.248,18.248,0,0,0,4.711,1.8l1.536,8.08a1.635,1.635,0,0,0,1.639,1.3H188.9a1.837,1.837,0,0,0,1.741-1.3l1.433-7.881c1.64-.6,3.38-1.1,4.916-1.793l6.759,4.388a1.738,1.738,0,0,0,2.048-.1l5.735-5.685a1.434,1.434,0,0,0,.205-2.094l-4.608-6.782a14.612,14.612,0,0,0,2.15-4.586l8.09-1.6a1.427,1.427,0,0,0,1.332-1.394v-8.078a1.551,1.551,0,0,0-1.332-1.6"/><path class="cls-2" d="M319.877,284a6.8,6.8,0,0,0,2.72-.488,3.811,3.811,0,0,0,1.68-1.3,3.153,3.153,0,0,0,.56-1.824,2.653,2.653,0,0,0-.616-1.848,3.667,3.667,0,0,0-1.456-.992,15.4,15.4,0,0,0-2.12-.584A9.286,9.286,0,0,1,319,276.5a.722.722,0,0,1-.512-.672.839.839,0,0,1,.432-.728,2.609,2.609,0,0,1,1.376-.28,6.523,6.523,0,0,1,3.1.864l.976-2.352a6.68,6.68,0,0,0-1.888-.728,9.644,9.644,0,0,0-2.176-.248,6.882,6.882,0,0,0-2.728.48,3.744,3.744,0,0,0-1.672,1.3,3.216,3.216,0,0,0-.56,1.848,2.7,2.7,0,0,0,.608,1.856,3.545,3.545,0,0,0,1.456,1,15.879,15.879,0,0,0,2.112.584,9.662,9.662,0,0,1,1.672.488.755.755,0,0,1,.52.712q0,.912-1.824.912a6.626,6.626,0,0,1-1.952-.3,6.714,6.714,0,0,1-1.744-.8l-1.04,2.336a6.491,6.491,0,0,0,2.08.9,10.351,10.351,0,0,0,2.64.336m-11.552-2.672V279.28H313.3v-2.368h-4.976v-1.888h5.648v-2.448h-8.784v11.2h8.992v-2.448Zm-8.56,2.448h3.168v-11.2h-3.168Zm-7.776,0h3.168v-8.688h3.424v-2.512H288.549v2.512h3.44Zm-7.808,0h3.168v-11.2h-3.168Zm-9.759,0h8.512v-2.512H277.59v-8.688h-3.168Zm-5.424,0h3.168v-11.2H269Zm-6.224.224a6.793,6.793,0,0,0,2.768-.544,5.318,5.318,0,0,0,2.048-1.568l-2.016-1.824a3.314,3.314,0,0,1-2.64,1.312,3.256,3.256,0,0,1-1.624-.4,2.77,2.77,0,0,1-1.1-1.128,3.762,3.762,0,0,1,0-3.344,2.776,2.776,0,0,1,1.1-1.128,3.256,3.256,0,0,1,1.624-.4,3.314,3.314,0,0,1,2.64,1.312l2.016-1.824a5.328,5.328,0,0,0-2.048-1.568,6.776,6.776,0,0,0-2.768-.544,6.628,6.628,0,0,0-3.16.744,5.566,5.566,0,0,0-2.2,2.072,6.055,6.055,0,0,0,0,6.016,5.559,5.559,0,0,0,2.2,2.072,6.628,6.628,0,0,0,3.16.744m-14.3-4.736,1.44-3.584,1.44,3.584Zm4.688,4.512h3.3l-4.96-11.2h-3.12l-4.944,11.2h3.232l.88-2.176h4.736Zm-9.44-8.752v-2.448h-8.784v11.2H238.1v-3.84h4.944v-2.448H238.1v-2.464Zm-23.488,6.224V275.1h2a3.247,3.247,0,0,1,2.312.816,3.354,3.354,0,0,1,0,4.512,3.247,3.247,0,0,1-2.312.816Zm-3.168,2.528h5.3a7.407,7.407,0,0,0,3.264-.688,5.168,5.168,0,0,0,2.208-1.952,5.98,5.98,0,0,0,0-5.92,5.181,5.181,0,0,0-2.208-1.952,7.407,7.407,0,0,0-3.264-.688h-5.3Zm-5.344-11.2v5.968l-4.944-5.968h-2.608v11.2h3.1v-5.968l4.944,5.968h2.608v-11.2Zm-16.432,6.688,1.44-3.584,1.44,3.584Zm4.688,4.512h3.3l-4.96-11.2h-3.12l-4.944,11.2h3.232l.88-2.176h4.736ZM180.519,284a6.8,6.8,0,0,0,2.72-.488,3.822,3.822,0,0,0,1.68-1.3,3.153,3.153,0,0,0,.56-1.824,2.653,2.653,0,0,0-.616-1.848,3.667,3.667,0,0,0-1.456-.992,15.4,15.4,0,0,0-2.12-.584,9.26,9.26,0,0,1-1.648-.464.72.72,0,0,1-.512-.672.839.839,0,0,1,.432-.728,2.607,2.607,0,0,1,1.376-.28,6.523,6.523,0,0,1,3.1.864l.976-2.352a6.691,6.691,0,0,0-1.888-.728,9.644,9.644,0,0,0-2.176-.248,6.879,6.879,0,0,0-2.728.48,3.744,3.744,0,0,0-1.672,1.3,3.209,3.209,0,0,0-.56,1.848,2.7,2.7,0,0,0,.608,1.856,3.545,3.545,0,0,0,1.456,1,15.879,15.879,0,0,0,2.112.584,9.662,9.662,0,0,1,1.672.488.756.756,0,0,1,.52.712q0,.912-1.824.912a6.626,6.626,0,0,1-1.952-.3,6.714,6.714,0,0,1-1.744-.8l-1.04,2.336a6.491,6.491,0,0,0,2.08.9,10.351,10.351,0,0,0,2.64.336m-6.176-.224-.032-11.2H171.7l-3.84,6.464-3.936-6.464h-2.608v11.2h2.928V278l2.864,4.672h1.408l2.88-4.832.032,5.936Zm-20.64-2.448V279.28h4.976v-2.368H153.7v-1.888h5.648v-2.448h-8.784v11.2h8.992v-2.448Zm-10.912,2.448h3.168v-8.688h3.424v-2.512H139.351v2.512h3.44Zm-8.64.224a6.8,6.8,0,0,0,2.72-.488,3.811,3.811,0,0,0,1.68-1.3,3.153,3.153,0,0,0,.56-1.824,2.648,2.648,0,0,0-.616-1.848,3.667,3.667,0,0,0-1.456-.992,15.4,15.4,0,0,0-2.12-.584,9.286,9.286,0,0,1-1.648-.464.722.722,0,0,1-.512-.672.839.839,0,0,1,.432-.728,2.609,2.609,0,0,1,1.376-.28,6.52,6.52,0,0,1,3.1.864l.976-2.352a6.68,6.68,0,0,0-1.888-.728,9.644,9.644,0,0,0-2.176-.248,6.882,6.882,0,0,0-2.728.48,3.75,3.75,0,0,0-1.672,1.3,3.216,3.216,0,0,0-.56,1.848,2.7,2.7,0,0,0,.608,1.856,3.552,3.552,0,0,0,1.456,1,15.879,15.879,0,0,0,2.112.584,9.662,9.662,0,0,1,1.672.488.755.755,0,0,1,.52.712q0,.912-1.824.912a6.626,6.626,0,0,1-1.952-.3,6.73,6.73,0,0,1-1.744-.8l-1.04,2.336a6.5,6.5,0,0,0,2.08.9,10.351,10.351,0,0,0,2.64.336m-4.5-11.424h-3.072l-2.656,4.448-2.656-4.448h-3.344l4.272,7.136v4.064h3.168V279.76ZM113.191,284a6.8,6.8,0,0,0,2.72-.488,3.811,3.811,0,0,0,1.68-1.3,3.145,3.145,0,0,0,.56-1.824,2.648,2.648,0,0,0-.616-1.848,3.66,3.66,0,0,0-1.456-.992,15.364,15.364,0,0,0-2.12-.584,9.312,9.312,0,0,1-1.648-.464.722.722,0,0,1-.512-.672.839.839,0,0,1,.432-.728,2.609,2.609,0,0,1,1.376-.28,6.517,6.517,0,0,1,3.1.864l.976-2.352a6.68,6.68,0,0,0-1.888-.728,9.638,9.638,0,0,0-2.176-.248,6.885,6.885,0,0,0-2.728.48,3.755,3.755,0,0,0-1.672,1.3,3.216,3.216,0,0,0-.56,1.848,2.7,2.7,0,0,0,.608,1.856,3.558,3.558,0,0,0,1.456,1,15.965,15.965,0,0,0,2.112.584,9.634,9.634,0,0,1,1.672.488.755.755,0,0,1,.52.712q0,.912-1.824.912a6.631,6.631,0,0,1-1.952-.3,6.745,6.745,0,0,1-1.744-.8l-1.04,2.336a6.511,6.511,0,0,0,2.08.9,10.362,10.362,0,0,0,2.64.336m-13.535-7.28a1.5,1.5,0,0,1-.5,1.208,2.213,2.213,0,0,1-1.472.424h-1.76v-3.28h1.76a2.187,2.187,0,0,1,1.472.432,1.528,1.528,0,0,1,.5,1.216m.032,7.056h3.392l-2.416-3.52a3.839,3.839,0,0,0,1.624-1.416,3.9,3.9,0,0,0,.568-2.12,3.794,3.794,0,0,0-2.336-3.64,6.39,6.39,0,0,0-2.64-.5H92.76v11.2h3.168V280.8h1.728Zm-14.544-2.448V279.28H90.12v-2.368H85.144v-1.888h5.648v-2.448H82.008v11.2H91v-2.448ZM76.6,272.576v4.208H72.28v-4.208H69.112v11.2H72.28v-4.368H76.6v4.368h3.168v-11.2Zm-15.264,11.2H64.5v-8.688h3.424v-2.512H57.9v2.512h3.44Zm-10.112-2.4a3,3,0,0,1-1.536-.4,2.875,2.875,0,0,1-1.088-1.128,3.694,3.694,0,0,1,0-3.344,2.882,2.882,0,0,1,1.088-1.128,3.149,3.149,0,0,1,3.072,0,2.882,2.882,0,0,1,1.088,1.128,3.694,3.694,0,0,1,0,3.344,2.875,2.875,0,0,1-1.088,1.128,3,3,0,0,1-1.536.4m0,2.624a6.7,6.7,0,0,0,3.192-.752,5.727,5.727,0,0,0,0-10.144,7.151,7.151,0,0,0-6.384,0,5.727,5.727,0,0,0,0,10.144,6.7,6.7,0,0,0,3.192.752"/></svg>