<svg id="Layer_1" data-name="Layer 1" xmlns="http://www.w3.org/2000/svg" xmlns:xlink="http://www.w3.org/1999/xlink" viewBox="0 0 360 360"><defs><style>.cls-1{fill:none;}.cls-2{clip-path:url(#clip-path);}.cls-3{fill:#93bc40;}.cls-4{clip-path:url(#clip-path-2);}.cls-5{fill:#003d58;}</style><clipPath id="clip-path"><rect class="cls-1" x="107" y="73.183" width="156.624" height="151.817"/></clipPath><clipPath id="clip-path-2"><rect class="cls-1" x="93" y="272.352" width="185.183" height="11.648"/></clipPath></defs><title>icons_V2</title><g class="cls-2"><path class="cls-3" d="M206.119,202.6H165.567v-12l9.979-2.059V142.507l-11.041-2.058V128.375h31.706v60.16l9.908,2.059ZM175.546,95.585h20.665v15.023H175.546Zm9.766-22.4c-43.25,0-78.312,33.985-78.312,75.907S142.062,225,185.312,225s78.312-33.986,78.312-75.91-35.061-75.907-78.312-75.907"/></g><g class="cls-4"><path class="cls-5" d="M275.079,272.576v5.968l-4.944-5.968h-2.608v11.2h3.1v-5.968l4.944,5.968h2.608v-11.2Zm-15.44,8.8a2.993,2.993,0,0,1-1.536-.4,2.868,2.868,0,0,1-1.088-1.128,3.694,3.694,0,0,1,0-3.344,2.875,2.875,0,0,1,1.088-1.128,3.149,3.149,0,0,1,3.072,0,2.889,2.889,0,0,1,1.088,1.128,3.694,3.694,0,0,1,0,3.344,2.882,2.882,0,0,1-1.088,1.128,3,3,0,0,1-1.536.4m0,2.624a6.7,6.7,0,0,0,3.192-.752,5.727,5.727,0,0,0,0-10.144,7.151,7.151,0,0,0-6.384,0,5.727,5.727,0,0,0,0,10.144,6.7,6.7,0,0,0,3.192.752m-11.072-.224h3.168v-11.2h-3.168Zm-7.776,0h3.168v-8.688h3.424v-2.512H237.351v2.512h3.44Zm-10.7-4.512,1.44-3.584,1.44,3.584Zm4.688,4.512h3.3l-4.96-11.2h-3.12l-4.944,11.2h3.232l.88-2.176H233.9Zm-10.624,0-.032-11.2h-2.608l-3.84,6.464-3.936-6.464h-2.608v11.2h2.928V278l2.864,4.672h1.408l2.88-4.832.032,5.936Zm-17.968-7.056a1.5,1.5,0,0,1-.5,1.208,2.212,2.212,0,0,1-1.472.424h-1.76v-3.28h1.76a2.185,2.185,0,0,1,1.472.432,1.525,1.525,0,0,1,.5,1.216m.032,7.056h3.392l-2.416-3.52a3.839,3.839,0,0,0,1.624-1.416,3.9,3.9,0,0,0,.568-2.12,3.952,3.952,0,0,0-.608-2.2,3.911,3.911,0,0,0-1.728-1.44,6.39,6.39,0,0,0-2.64-.5h-5.12v11.2h3.168V280.8h1.728Zm-14.816-2.4a3,3,0,0,1-1.536-.4,2.882,2.882,0,0,1-1.088-1.128,3.694,3.694,0,0,1,0-3.344,2.889,2.889,0,0,1,1.088-1.128,3.149,3.149,0,0,1,3.072,0,2.875,2.875,0,0,1,1.088,1.128,3.694,3.694,0,0,1,0,3.344,2.868,2.868,0,0,1-1.088,1.128,2.993,2.993,0,0,1-1.536.4m0,2.624a6.7,6.7,0,0,0,3.192-.752,5.727,5.727,0,0,0,0-10.144,7.151,7.151,0,0,0-6.384,0,5.727,5.727,0,0,0,0,10.144A6.7,6.7,0,0,0,191.4,284m-7.04-8.976v-2.448h-8.784v11.2h3.168v-3.84h4.944v-2.448h-4.944v-2.464Zm-14.128-2.448v5.968l-4.944-5.968h-2.608v11.2h3.1v-5.968l4.944,5.968h2.608v-11.2Zm-12.976,11.2h3.168v-11.2h-3.168Zm-9.6-7.056a1.5,1.5,0,0,1-.5,1.208,2.213,2.213,0,0,1-1.472.424h-1.76v-3.28h1.76a2.187,2.187,0,0,1,1.472.432,1.528,1.528,0,0,1,.5,1.216m.032,7.056h3.392l-2.416-3.52a3.839,3.839,0,0,0,1.624-1.416,3.9,3.9,0,0,0,.568-2.12,3.794,3.794,0,0,0-2.336-3.64,6.39,6.39,0,0,0-2.64-.5h-5.12v11.2h3.168V280.8h1.728Zm-14.544-2.448V279.28h4.976v-2.368h-4.976v-1.888h5.648v-2.448h-8.784v11.2H139v-2.448Zm-8.544-8.752v4.208h-4.32v-4.208h-3.168v11.2h3.168v-4.368h4.32v4.368h3.168v-11.2Zm-15.264,11.2H112.5v-8.688h3.424v-2.512H105.9v2.512h3.44Zm-10.112-2.4a3,3,0,0,1-1.536-.4,2.875,2.875,0,0,1-1.088-1.128,3.694,3.694,0,0,1,0-3.344,2.882,2.882,0,0,1,1.088-1.128,3.149,3.149,0,0,1,3.072,0,2.882,2.882,0,0,1,1.088,1.128,3.694,3.694,0,0,1,0,3.344,2.875,2.875,0,0,1-1.088,1.128,3,3,0,0,1-1.536.4m0,2.624a6.7,6.7,0,0,0,3.192-.752,5.727,5.727,0,0,0,0-10.144,7.151,7.151,0,0,0-6.384,0,5.727,5.727,0,0,0,0,10.144,6.7,6.7,0,0,0,3.192.752"/></g></svg>