<svg id="Layer_1" data-name="Layer 1" xmlns="http://www.w3.org/2000/svg" viewBox="0 0 360 360"><defs><style>.cls-1{fill:#fff;}.cls-2{fill:#93bc40;}</style></defs><title>icons_V2</title><rect class="cls-1" x="119" y="71.171" width="121.01" height="157.829"/><rect class="cls-2" width="360" height="360"/><path class="cls-1" d="M165.248,162.454h-7.421V199.56H138.038V162.454h-7.422V135.243a9.924,9.924,0,0,1,9.895-9.894h14.842a9.924,9.924,0,0,1,9.895,9.894Zm-17.316-61.842a9.895,9.895,0,1,1-9.894,9.9,9.892,9.892,0,0,1,9.894-9.9M119,229h57.865V71.171H119Z"/><path class="cls-1" d="M207.12,160.263h7.948v22.395l8.985-11.317,6.1,4.75-19.076,23.9L192,176.091l6.111-4.75,9.006,11.317ZM192,123.963l19.074-23.9,19.076,23.9-6.112,4.751L215.035,117.4V139.79h-7.948V117.4L198.1,128.714ZM182.145,229H240.01V71.172H182.145Z"/><path class="cls-1" d="M277.631,284a6.8,6.8,0,0,0,2.72-.488,3.822,3.822,0,0,0,1.68-1.3,3.153,3.153,0,0,0,.56-1.824,2.651,2.651,0,0,0-.616-1.848,3.667,3.667,0,0,0-1.456-.992,15.4,15.4,0,0,0-2.12-.584,9.26,9.26,0,0,1-1.648-.464.72.72,0,0,1-.512-.672.839.839,0,0,1,.432-.728,2.6,2.6,0,0,1,1.376-.28,6.523,6.523,0,0,1,3.1.864l.976-2.352a6.662,6.662,0,0,0-1.888-.728,9.644,9.644,0,0,0-2.176-.248,6.879,6.879,0,0,0-2.728.48,3.744,3.744,0,0,0-1.672,1.3,3.207,3.207,0,0,0-.56,1.848,2.7,2.7,0,0,0,.608,1.856,3.545,3.545,0,0,0,1.456,1,15.879,15.879,0,0,0,2.112.584,9.662,9.662,0,0,1,1.672.488.756.756,0,0,1,.52.712q0,.912-1.824.912a6.626,6.626,0,0,1-1.952-.3,6.714,6.714,0,0,1-1.744-.8l-1.04,2.336a6.491,6.491,0,0,0,2.08.9,10.351,10.351,0,0,0,2.64.336m-8.88-7.28a1.5,1.5,0,0,1-.5,1.208,2.213,2.213,0,0,1-1.472.424h-1.76v-3.28h1.76a2.187,2.187,0,0,1,1.472.432,1.528,1.528,0,0,1,.5,1.216m.032,7.056h3.392l-2.416-3.52a3.839,3.839,0,0,0,1.624-1.416,3.907,3.907,0,0,0,.568-2.12,3.794,3.794,0,0,0-2.336-3.64,6.39,6.39,0,0,0-2.64-.5h-5.12v11.2h3.168V280.8h1.728Zm-14.816-2.4a2.993,2.993,0,0,1-1.536-.4,2.875,2.875,0,0,1-1.088-1.128,3.694,3.694,0,0,1,0-3.344,2.875,2.875,0,0,1,1.088-1.128,3.149,3.149,0,0,1,3.072,0,2.889,2.889,0,0,1,1.088,1.128,3.694,3.694,0,0,1,0,3.344,2.889,2.889,0,0,1-1.088,1.128,3,3,0,0,1-1.536.4m0,2.624a6.7,6.7,0,0,0,3.192-.752,5.727,5.727,0,0,0,0-10.144,7.151,7.151,0,0,0-6.384,0,5.727,5.727,0,0,0,0,10.144,6.7,6.7,0,0,0,3.192.752m-13.264-.224h3.168v-8.688H247.3v-2.512H237.263v2.512h3.44ZM230,279.264l1.44-3.584,1.44,3.584Zm4.688,4.512h3.3l-4.96-11.2H229.9l-4.944,11.2h3.232l.88-2.176h4.736Zm-11.792-11.2-3.1,7.3-3.04-7.3h-3.424l4.784,11.2h3.12l4.8-11.2Zm-15.68,8.752V279.28h4.976v-2.368h-4.976v-1.888h5.648v-2.448h-8.784v11.2h8.992v-2.448Zm-12.9,2.448h8.512v-2.512h-5.344v-8.688h-3.168Zm-7.616-2.448V279.28h4.976v-2.368H186.7v-1.888h5.648v-2.448h-8.784v11.2h8.992v-2.448Zm-12.736-4.608a1.5,1.5,0,0,1-.5,1.208,2.21,2.21,0,0,1-1.472.424h-1.76v-3.28H172a2.183,2.183,0,0,1,1.472.432,1.525,1.525,0,0,1,.5,1.216m.032,7.056h3.392l-2.416-3.52a3.833,3.833,0,0,0,1.624-1.416,3.9,3.9,0,0,0,.568-2.12,3.794,3.794,0,0,0-2.336-3.64,6.384,6.384,0,0,0-2.64-.5h-5.12v11.2h3.168V280.8h1.728Zm-14.544-2.448V279.28h4.976v-2.368h-4.976v-1.888H165.1v-2.448h-8.784v11.2h8.992v-2.448Zm-7.951-.32a4.055,4.055,0,0,1-1.712.368,3.283,3.283,0,0,1-1.648-.408,2.86,2.86,0,0,1-1.12-1.136,3.376,3.376,0,0,1-.4-1.656,3.012,3.012,0,0,1,3.2-3.2,3.555,3.555,0,0,1,2.72,1.248l2.016-1.824a5.434,5.434,0,0,0-2.08-1.52,7.165,7.165,0,0,0-2.816-.528,6.838,6.838,0,0,0-3.216.744,5.52,5.52,0,0,0-2.224,2.072,6.055,6.055,0,0,0,0,6.016,5.548,5.548,0,0,0,2.208,2.072A6.672,6.672,0,0,0,149.6,284a8.8,8.8,0,0,0,2.5-.368,7.285,7.285,0,0,0,2.208-1.056v-4.64h-2.8Zm-12.848-8.432v5.968l-4.944-5.968H131.1v11.2h3.1v-5.968l4.944,5.968h2.608v-11.2Zm-15.168,8.752V279.28h4.976v-2.368h-4.976v-1.888h5.648v-2.448h-8.784v11.2h8.992v-2.448ZM113.936,284a6.8,6.8,0,0,0,2.72-.488,3.822,3.822,0,0,0,1.68-1.3,3.153,3.153,0,0,0,.56-1.824,2.651,2.651,0,0,0-.616-1.848,3.667,3.667,0,0,0-1.456-.992,15.4,15.4,0,0,0-2.12-.584,9.26,9.26,0,0,1-1.648-.464.72.72,0,0,1-.512-.672.839.839,0,0,1,.432-.728,2.6,2.6,0,0,1,1.376-.28,6.523,6.523,0,0,1,3.1.864l.976-2.352a6.662,6.662,0,0,0-1.888-.728,9.644,9.644,0,0,0-2.176-.248,6.879,6.879,0,0,0-2.728.48,3.744,3.744,0,0,0-1.672,1.3,3.207,3.207,0,0,0-.56,1.848,2.7,2.7,0,0,0,.608,1.856,3.545,3.545,0,0,0,1.456,1,15.879,15.879,0,0,0,2.112.584,9.662,9.662,0,0,1,1.672.488.756.756,0,0,1,.52.712q0,.912-1.824.912a6.626,6.626,0,0,1-1.952-.3,6.714,6.714,0,0,1-1.744-.8l-1.04,2.336a6.491,6.491,0,0,0,2.08.9,10.351,10.351,0,0,0,2.64.336m-10.352,0a6.8,6.8,0,0,0,2.72-.488,3.822,3.822,0,0,0,1.68-1.3,3.153,3.153,0,0,0,.56-1.824,2.651,2.651,0,0,0-.616-1.848,3.667,3.667,0,0,0-1.456-.992,15.4,15.4,0,0,0-2.12-.584,9.26,9.26,0,0,1-1.648-.464.72.72,0,0,1-.512-.672.839.839,0,0,1,.432-.728,2.6,2.6,0,0,1,1.376-.28,6.523,6.523,0,0,1,3.1.864l.976-2.352a6.662,6.662,0,0,0-1.888-.728,9.644,9.644,0,0,0-2.176-.248,6.879,6.879,0,0,0-2.728.48,3.744,3.744,0,0,0-1.672,1.3,3.207,3.207,0,0,0-.56,1.848,2.7,2.7,0,0,0,.608,1.856,3.545,3.545,0,0,0,1.456,1,15.879,15.879,0,0,0,2.112.584,9.662,9.662,0,0,1,1.672.488.756.756,0,0,1,.52.712q0,.912-1.824.912a6.626,6.626,0,0,1-1.952-.3,6.714,6.714,0,0,1-1.744-.8l-1.04,2.336a6.491,6.491,0,0,0,2.08.9,10.351,10.351,0,0,0,2.64.336m-12.816-4.736,1.44-3.584,1.44,3.584Zm4.688,4.512h3.3l-4.96-11.2h-3.12l-4.944,11.2H88.96l.88-2.176h4.736Zm-14.528-5.424h-1.76v-3.28h1.76a2.185,2.185,0,0,1,1.472.432,1.525,1.525,0,0,1,.5,1.216,1.5,1.5,0,0,1-.5,1.208,2.212,2.212,0,0,1-1.472.424m.192-5.776H76v11.2h3.168v-2.928H81.12a6.39,6.39,0,0,0,2.64-.5,3.954,3.954,0,0,0,0-7.264,6.39,6.39,0,0,0-2.64-.5"/></svg>