<svg id="Layer_1" data-name="Layer 1" xmlns="http://www.w3.org/2000/svg" xmlns:xlink="http://www.w3.org/1999/xlink" viewBox="0 0 360 360"><defs><style>.cls-1{fill:none;}.cls-2{clip-path:url(#clip-path);}.cls-3{fill:#93bc40;}.cls-4{clip-path:url(#clip-path-2);}.cls-5{fill:#003d58;}</style><clipPath id="clip-path"><rect class="cls-1" x="103" y="74.815" width="156.624" height="149.185"/></clipPath><clipPath id="clip-path-2"><rect class="cls-1" x="86" y="272.352" width="190.446" height="11.648"/></clipPath></defs><title>icons_V2</title><g class="cls-2"><path class="cls-3" d="M182.275,218.083s-.108.965-.87.937-.715-.937-.715-.937-.55-33.458-.55-56.368.55-47.873.55-47.873.2-.947.839-.947.746.947.746.947.556,24.962.556,47.873-.556,56.368-.556,56.368m62.552-49.458c1.369-.642,18.062-5.785,14.225-15.743-2.691-7-7.879,1.289-11.486-1.41-1.162-.859-1.884-1.548,3.189-6.473s6.627-8.437,7.133-11.478.5-5.351-1.592-6.519-4.834,1.922-5.665-1.285c-.507-1.716.15-2.682.158-5.753.007-3.364-3.438-11.761-11.445-8.929-5.187,1.829-2.44,10.764-3.77,12.458-1.377,1.734-2.541-3.571-5.453-4.4-3.356-.956-5.7,2.153-5.674,5.035s1.908,8.252,2.525,10.328c.349,1.651,1.243,6.137.681,7.451-.857,1.985-1.585,1.336-3.5-1.188-1.686-2.233-.8-1.3-3.778-4.883-3.712-4.575-5.968,1.771-6.235,6.009s2.948,19,2.9,20.956c-.224,8.852-5.148-1.3-5.3-1.535-3.23-4.919-9.443-2.618-7.5,2.667,3.546,9.625,6.72,17.931,3.372,26.192-.453,1.1-1.053,3.031-1.876,4.942,27.266-25.391,34.771-60.569,34.779-60.611a1.066,1.066,0,0,1,1.083-.6c.34.108.5.785.4,1.156-.015.058-8.91,52.294-56.455,78.968-1.054.576-1.175-.04-1.379-.989.228-8.279.572-13.9,3.639-15.729,25.614-15.2,17.293-22.193,11.984-23.232s-8.343-9.726-1.021-13.5c12.9-7.25,19.489-33.14,3.473-27.479-1.463.125-11.992,5.6-2.707-10.278,8.785-15.881,6.078-30.03-3.032-23.87-2.386,1.613-9.154,8.778-7.8-1.583C191.107,81.6,187.212,76,182.6,74.968c0,0-.483-.081-.871-.128l-.418.023v-.046a10.056,10.056,0,0,0-1.293.151c-4.615,1.029-8.5,6.633-6.087,22.35,1.349,10.361-5.41,3.2-7.8,1.583-9.114-6.16-11.817,7.989-3.031,23.87,9.28,15.878-1.249,10.4-2.711,10.278-16.013-5.661-9.424,20.229,3.481,27.479,7.319,3.774,4.284,12.463-1.025,13.5s-13.632,8.028,11.975,23.232c3.075,1.83,3.453,7.49,3.675,15.8-.206.914-.364,1.483-1.4.919-47.548-26.674-56.445-78.91-56.457-78.968a1.121,1.121,0,0,1,.5-1.156c.332-.112.862.48.963.844.014.041,7.532,34.975,34.809,60.366-.827-1.911-1.426-3.841-1.882-4.942-3.346-8.261-.17-16.567,3.368-26.192,1.942-5.285-4.266-7.586-7.5-2.667-.157.24-5.082,10.387-5.3,1.535-.058-1.958,3.163-16.716,2.9-20.956s-2.524-10.584-6.233-6.009c-2.986,3.586-2.1,2.65-3.789,4.883-1.912,2.524-2.642,3.173-3.5,1.188-.56-1.314.333-5.8.681-7.451.623-2.076,2.495-7.444,2.525-10.328s-2.319-5.991-5.673-5.035c-2.911.832-4.078,6.137-5.452,4.4-1.329-1.694,1.419-10.629-3.769-12.458-8.012-2.832-11.455,5.565-11.444,8.929.008,3.071.665,4.037.155,5.753-.827,3.207-3.58.118-5.666,1.285s-2.091,3.491-1.593,6.519,2.054,6.539,7.132,11.478,4.353,5.614,3.194,6.473c-3.612,2.7-8.794-5.592-11.489,1.41-3.835,9.958,12.854,15.1,14.224,15.743,3.575,1.713,5.54,5.615.656,4.463-1.964-.457-4.972-1.888-7.327.73-6.215,6.934,10,19.022,20.758,21.246a121.366,121.366,0,0,1,24.461,8.191c4.007,1.82,21.122,13.557,22.309,18.309.305,1.4,1.039,2.436,2.687,2.436A2.507,2.507,0,0,0,184,221.658c1.087-4.657,18.271-16.58,22.289-18.4a121.37,121.37,0,0,1,24.455-8.191c10.765-2.224,26.975-14.312,20.761-21.246-2.358-2.618-5.36-1.187-7.331-.73-4.884,1.152-2.921-2.75.657-4.463"/></g><g class="cls-4"><path class="cls-5" d="M268.062,281.248V275.1h2a3.248,3.248,0,0,1,2.312.816,3.354,3.354,0,0,1,0,4.512,3.248,3.248,0,0,1-2.312.816Zm-3.168,2.528h5.3a7.413,7.413,0,0,0,3.264-.688,5.18,5.18,0,0,0,2.208-1.952,5.98,5.98,0,0,0,0-5.92,5.193,5.193,0,0,0-2.208-1.952,7.413,7.413,0,0,0-3.264-.688h-5.3Zm-7.616-2.448V279.28h4.976v-2.368h-4.976v-1.888h5.648v-2.448h-8.784v11.2h8.992v-2.448Zm-8.56,2.448h3.168v-11.2h-3.168Zm-1.488-8.752v-2.448h-8.784v11.2h3.168v-3.84h4.944v-2.448h-4.944v-2.464Zm-14.208,8.752h3.168v-11.2h-3.168Zm-7.776,0h3.168v-8.688h3.424v-2.512H221.806v2.512h3.44Zm-7.168-7.056a1.5,1.5,0,0,1-.5,1.208,2.212,2.212,0,0,1-1.472.424h-1.76v-3.28h1.76a2.185,2.185,0,0,1,1.472.432,1.525,1.525,0,0,1,.5,1.216m.032,7.056H221.5l-2.416-3.52a3.839,3.839,0,0,0,1.624-1.416,3.9,3.9,0,0,0,.568-2.12,3.952,3.952,0,0,0-.608-2.2,3.911,3.911,0,0,0-1.728-1.44,6.39,6.39,0,0,0-2.64-.5h-5.12v11.2h3.168V280.8h1.728Zm-14.544-2.448V279.28h4.976v-2.368h-4.976v-1.888h5.648v-2.448H200.43v11.2h8.992v-2.448ZM194.206,284a6.793,6.793,0,0,0,2.768-.544,5.311,5.311,0,0,0,2.048-1.568l-2.016-1.824a3.314,3.314,0,0,1-2.64,1.312,3.256,3.256,0,0,1-1.624-.4,2.782,2.782,0,0,1-1.1-1.128,3.762,3.762,0,0,1,0-3.344,2.789,2.789,0,0,1,1.1-1.128,3.256,3.256,0,0,1,1.624-.4,3.314,3.314,0,0,1,2.64,1.312l2.016-1.824a5.321,5.321,0,0,0-2.048-1.568,6.776,6.776,0,0,0-2.768-.544,6.631,6.631,0,0,0-3.16.744,5.572,5.572,0,0,0-2.2,2.072,6.055,6.055,0,0,0,0,6.016,5.565,5.565,0,0,0,2.2,2.072,6.631,6.631,0,0,0,3.16.744m-20.287-2.752V275.1h2a3.248,3.248,0,0,1,2.312.816,3.354,3.354,0,0,1,0,4.512,3.248,3.248,0,0,1-2.312.816Zm-3.168,2.528h5.3a7.413,7.413,0,0,0,3.264-.688,5.18,5.18,0,0,0,2.208-1.952,5.98,5.98,0,0,0,0-5.92,5.193,5.193,0,0,0-2.208-1.952,7.413,7.413,0,0,0-3.264-.688h-5.3Zm-9.76,0H169.5v-2.512h-5.344v-8.688h-3.168Zm-7.888-2.4a3,3,0,0,1-1.536-.4,2.875,2.875,0,0,1-1.088-1.128,3.694,3.694,0,0,1,0-3.344,2.882,2.882,0,0,1,1.088-1.128,3.149,3.149,0,0,1,3.072,0,2.882,2.882,0,0,1,1.088,1.128,3.694,3.694,0,0,1,0,3.344,2.875,2.875,0,0,1-1.088,1.128,3,3,0,0,1-1.536.4m0,2.624a6.7,6.7,0,0,0,3.192-.752,5.727,5.727,0,0,0,0-10.144,7.151,7.151,0,0,0-6.384,0,5.727,5.727,0,0,0,0,10.144A6.7,6.7,0,0,0,153.1,284m-10.464-2.992a4.051,4.051,0,0,1-1.712.368,3.286,3.286,0,0,1-1.648-.408,2.866,2.866,0,0,1-1.12-1.136,3.387,3.387,0,0,1-.4-1.656,3.012,3.012,0,0,1,3.2-3.2,3.553,3.553,0,0,1,2.72,1.248L145.7,274.4a5.427,5.427,0,0,0-2.08-1.52,7.165,7.165,0,0,0-2.816-.528,6.841,6.841,0,0,0-3.216.744,5.533,5.533,0,0,0-2.224,2.072,6.055,6.055,0,0,0,0,6.016,5.548,5.548,0,0,0,2.208,2.072,6.677,6.677,0,0,0,3.168.744,8.8,8.8,0,0,0,2.5-.368,7.285,7.285,0,0,0,2.208-1.056v-4.64h-2.8Zm-22.207.24V275.1h2a3.248,3.248,0,0,1,2.312.816,3.354,3.354,0,0,1,0,4.512,3.248,3.248,0,0,1-2.312.816Zm-3.168,2.528h5.3a7.413,7.413,0,0,0,3.264-.688,5.18,5.18,0,0,0,2.208-1.952,5.98,5.98,0,0,0,0-5.92,5.193,5.193,0,0,0-2.208-1.952,7.413,7.413,0,0,0-3.264-.688h-5.3Zm-7.616-2.448V279.28h4.976v-2.368h-4.976v-1.888H115.3v-2.448h-8.784v11.2H115.5v-2.448Zm-10.752,0V279.28h4.976v-2.368H98.9v-1.888h5.648v-2.448H95.76v11.2h8.992v-2.448ZM86,283.776h8.512v-2.512H89.168v-8.688H86Z"/></g></svg>