<svg id="Layer_1" data-name="Layer 1" xmlns="http://www.w3.org/2000/svg" xmlns:xlink="http://www.w3.org/1999/xlink" viewBox="0 0 360 360"><defs><style>.cls-1{fill:none;}.cls-2{clip-path:url(#clip-path);}.cls-3{fill:#93bc40;}.cls-4{clip-path:url(#clip-path-2);}.cls-5{fill:#003d58;}</style><clipPath id="clip-path"><rect class="cls-1" x="114" y="77.165" width="143.522" height="146.835"/></clipPath><clipPath id="clip-path-2"><rect class="cls-1" x="84" y="272.352" width="203.535" height="11.648"/></clipPath></defs><title>icons_V2</title><g class="cls-2"><path class="cls-3" d="M185.761,224c39.569,0,71.761-32.936,71.761-73.418S225.33,77.164,185.761,77.164,114,110.1,114,150.582,146.192,224,185.761,224m18.5-9.315c6.343-6.92,11.487-17.336,14.811-30.023,12.4-3.4,22.586-8.664,29.349-15.153a66.351,66.351,0,0,1-44.16,45.176m16.481-37.438a138.911,138.911,0,0,0,2.42-23.392h27.6c-2.149,9.7-13.724,18.239-30.017,23.392m2.42-29.939a138.864,138.864,0,0,0-2.42-23.389c16.293,5.153,27.868,13.692,30.017,23.389Zm25.259-15.651c-6.763-6.489-16.944-11.75-29.347-15.153C215.744,103.815,210.6,93.4,204.257,86.48a66.348,66.348,0,0,1,44.16,45.177M188.96,84.087c9.479,2.2,17.826,14.042,22.861,30.71a130.114,130.114,0,0,0-22.861-2.477Zm0,34.778a120.619,120.619,0,0,1,24.745,3.126,128.759,128.759,0,0,1,3.057,25.317h-27.8Zm0,34.99h27.8a128.781,128.781,0,0,1-3.057,25.32A120.636,120.636,0,0,1,188.96,182.3Zm0,34.989a130.154,130.154,0,0,0,22.861-2.473c-5.037,16.666-13.382,28.507-22.861,30.7Zm-6.4,28.233c-9.481-2.2-17.828-14.04-22.863-30.708a129.962,129.962,0,0,0,22.863,2.475Zm0-34.776a120.5,120.5,0,0,1-24.748-3.128,128.687,128.687,0,0,1-3.056-25.318h27.8Zm0-34.993h-27.8a128.646,128.646,0,0,1,3.056-25.315,120.5,120.5,0,0,1,24.748-3.128Zm0-63.221V112.32A130.171,130.171,0,0,0,159.7,114.8c5.037-16.67,13.384-28.511,22.865-30.71m-15.3,2.393c-6.342,6.919-11.485,17.335-14.811,30.024-12.4,3.4-22.582,8.664-29.345,15.153A66.349,66.349,0,0,1,167.261,86.48M150.78,123.921a139.255,139.255,0,0,0-2.42,23.387H120.766c2.149-9.7,13.723-18.236,30.014-23.387m-2.42,29.934a139.28,139.28,0,0,0,2.42,23.39c-16.291-5.152-27.865-13.692-30.014-23.39Zm4.09,30.807c3.326,12.687,8.469,23.1,14.811,30.023a66.36,66.36,0,0,1-44.156-45.178c6.763,6.491,16.944,11.752,29.345,15.155"/></g><g class="cls-4"><path class="cls-5" d="M282.575,284a6.8,6.8,0,0,0,2.72-.488,3.822,3.822,0,0,0,1.68-1.3,3.153,3.153,0,0,0,.56-1.824,2.653,2.653,0,0,0-.616-1.848,3.667,3.667,0,0,0-1.456-.992,15.4,15.4,0,0,0-2.12-.584,9.26,9.26,0,0,1-1.648-.464.72.72,0,0,1-.512-.672.839.839,0,0,1,.432-.728,2.6,2.6,0,0,1,1.376-.28,6.523,6.523,0,0,1,3.1.864l.976-2.352a6.691,6.691,0,0,0-1.888-.728,9.644,9.644,0,0,0-2.176-.248,6.879,6.879,0,0,0-2.728.48,3.744,3.744,0,0,0-1.672,1.3,3.209,3.209,0,0,0-.56,1.848,2.7,2.7,0,0,0,.608,1.856,3.545,3.545,0,0,0,1.456,1,15.879,15.879,0,0,0,2.112.584,9.662,9.662,0,0,1,1.672.488.756.756,0,0,1,.52.712q0,.912-1.824.912a6.626,6.626,0,0,1-1.952-.3,6.714,6.714,0,0,1-1.744-.8l-1.04,2.336a6.491,6.491,0,0,0,2.08.9,10.351,10.351,0,0,0,2.64.336m-9.28-11.424v5.968l-4.944-5.968h-2.608v11.2h3.1v-5.968l4.944,5.968H276.4v-11.2Zm-15.44,8.8a2.993,2.993,0,0,1-1.536-.4,2.868,2.868,0,0,1-1.088-1.128,3.694,3.694,0,0,1,0-3.344,2.875,2.875,0,0,1,1.088-1.128,3.149,3.149,0,0,1,3.072,0,2.889,2.889,0,0,1,1.088,1.128,3.694,3.694,0,0,1,0,3.344,2.882,2.882,0,0,1-1.088,1.128,3,3,0,0,1-1.536.4m0,2.624a6.7,6.7,0,0,0,3.192-.752,5.727,5.727,0,0,0,0-10.144,7.151,7.151,0,0,0-6.384,0,5.727,5.727,0,0,0,0,10.144,6.7,6.7,0,0,0,3.192.752m-11.072-.224h3.168v-11.2h-3.168Zm-7.776,0h3.168v-8.688H245.6v-2.512H235.567v2.512h3.44Zm-10.7-4.512,1.44-3.584,1.44,3.584Zm4.688,4.512h3.3l-4.96-11.2h-3.12l-4.944,11.2H226.5l.88-2.176h4.736ZM218.575,284a6.793,6.793,0,0,0,2.768-.544,5.318,5.318,0,0,0,2.048-1.568l-2.016-1.824a3.314,3.314,0,0,1-2.64,1.312,3.256,3.256,0,0,1-1.624-.4,2.77,2.77,0,0,1-1.1-1.128,3.762,3.762,0,0,1,0-3.344,2.776,2.776,0,0,1,1.1-1.128,3.256,3.256,0,0,1,1.624-.4,3.314,3.314,0,0,1,2.64,1.312l2.016-1.824a5.328,5.328,0,0,0-2.048-1.568,6.776,6.776,0,0,0-2.768-.544,6.628,6.628,0,0,0-3.16.744,5.566,5.566,0,0,0-2.2,2.072,6.055,6.055,0,0,0,0,6.016,5.559,5.559,0,0,0,2.2,2.072,6.628,6.628,0,0,0,3.16.744m-11.008-.224h3.168v-11.2h-3.168Zm-5.344-11.2v5.968l-4.944-5.968h-2.608v11.2h3.1v-5.968l4.944,5.968h2.608v-11.2ZM187.263,284a5.3,5.3,0,0,0,3.88-1.36,5.16,5.16,0,0,0,1.384-3.856v-6.208h-3.12v6.112q0,2.688-2.112,2.688t-2.128-2.688v-6.112H182v6.208a5.164,5.164,0,0,0,1.384,3.856,5.3,5.3,0,0,0,3.88,1.36m-7.408-.224-.032-11.2h-2.608l-3.84,6.464-3.936-6.464h-2.608v11.2h2.928V278l2.864,4.672h1.408l2.88-4.832.032,5.936Zm-15.264,0-.032-11.2h-2.608l-3.84,6.464-3.936-6.464h-2.608v11.2H154.5V278l2.864,4.672h1.408l2.88-4.832.032,5.936Zm-20.911-2.4a2.993,2.993,0,0,1-1.536-.4,2.868,2.868,0,0,1-1.088-1.128,3.694,3.694,0,0,1,0-3.344,2.875,2.875,0,0,1,1.088-1.128,3.149,3.149,0,0,1,3.072,0A2.889,2.889,0,0,1,146.3,276.5a3.694,3.694,0,0,1,0,3.344,2.882,2.882,0,0,1-1.088,1.128,3,3,0,0,1-1.536.4m0,2.624a6.7,6.7,0,0,0,3.192-.752,5.727,5.727,0,0,0,0-10.144,7.151,7.151,0,0,0-6.384,0,5.727,5.727,0,0,0,0,10.144,6.7,6.7,0,0,0,3.192.752m-11.632,0a6.8,6.8,0,0,0,2.768-.544,5.318,5.318,0,0,0,2.048-1.568l-2.016-1.824a3.317,3.317,0,0,1-2.64,1.312,3.253,3.253,0,0,1-1.624-.4,2.77,2.77,0,0,1-1.1-1.128,3.762,3.762,0,0,1,0-3.344,2.776,2.776,0,0,1,1.1-1.128,3.253,3.253,0,0,1,1.624-.4,3.317,3.317,0,0,1,2.64,1.312l2.016-1.824a5.328,5.328,0,0,0-2.048-1.568,6.779,6.779,0,0,0-2.768-.544,6.625,6.625,0,0,0-3.16.744,5.559,5.559,0,0,0-2.2,2.072,6.055,6.055,0,0,0,0,6.016,5.552,5.552,0,0,0,2.2,2.072,6.625,6.625,0,0,0,3.16.744m-13.184-2.672V279.28h4.976v-2.368h-4.976v-1.888h5.648v-2.448h-8.784v11.2h8.992v-2.448Zm-12.9,2.448h8.512v-2.512h-5.344v-8.688h-3.168Zm-7.616-2.448V279.28h4.976v-2.368H98.352v-1.888H104v-2.448H95.216v11.2h8.992v-2.448ZM87.44,283.776h3.168v-8.688h3.424v-2.512H84v2.512h3.44Z"/></g></svg>