<svg id="Layer_1" data-name="Layer 1" xmlns="http://www.w3.org/2000/svg" xmlns:xlink="http://www.w3.org/1999/xlink" viewBox="0 0 360 360"><defs><style>.cls-1{fill:none;}.cls-2{fill:#93bc40;}.cls-3{clip-path:url(#clip-path);}.cls-4{fill:#003d58;}</style><clipPath id="clip-path"><rect class="cls-1" x="108" y="272.352" width="107.791" height="11.648"/></clipPath></defs><title>icons_V2</title><polygon class="cls-2" points="153.266 76.082 119.495 150.095 148.001 150.095 120.118 222.918 205.295 122.762 173.314 122.678 194.512 76.082 153.266 76.082"/><rect class="cls-2" x="213.584" y="87.804" width="11.835" height="42.007"/><rect class="cls-2" x="198.499" y="102.892" width="42.006" height="11.834"/><g class="cls-3"><path class="cls-4" d="M215.791,272.576h-3.072l-2.656,4.448-2.656-4.448h-3.344l4.272,7.136v4.064H211.5V279.76ZM198,283.776h3.168v-8.688h3.424v-2.512H194.559v2.512H198Zm-7.808,0h3.168v-11.2h-3.168Zm-6.224.224a6.793,6.793,0,0,0,2.768-.544,5.311,5.311,0,0,0,2.048-1.568l-2.016-1.824a3.314,3.314,0,0,1-2.64,1.312,3.256,3.256,0,0,1-1.624-.4,2.782,2.782,0,0,1-1.1-1.128,3.762,3.762,0,0,1,0-3.344,2.789,2.789,0,0,1,1.1-1.128,3.256,3.256,0,0,1,1.624-.4,3.314,3.314,0,0,1,2.64,1.312l2.016-1.824a5.321,5.321,0,0,0-2.048-1.568,6.776,6.776,0,0,0-2.768-.544,6.631,6.631,0,0,0-3.16.744,5.572,5.572,0,0,0-2.2,2.072,6.055,6.055,0,0,0,0,6.016,5.565,5.565,0,0,0,2.2,2.072,6.631,6.631,0,0,0,3.16.744m-11.008-.224h3.168v-11.2h-3.168Zm-4.943-7.056a1.5,1.5,0,0,1-.5,1.208,2.213,2.213,0,0,1-1.472.424h-1.76v-3.28h1.76a2.187,2.187,0,0,1,1.472.432,1.528,1.528,0,0,1,.5,1.216m.032,7.056h3.392l-2.416-3.52a3.839,3.839,0,0,0,1.624-1.416,3.9,3.9,0,0,0,.568-2.12,3.794,3.794,0,0,0-2.336-3.64,6.39,6.39,0,0,0-2.64-.5h-5.12v11.2h3.168V280.8h1.728Zm-14.7,0h3.168v-8.688h3.424v-2.512H149.9v2.512h3.44Zm-8.512.224a6.8,6.8,0,0,0,2.768-.544,5.318,5.318,0,0,0,2.048-1.568l-2.016-1.824a3.317,3.317,0,0,1-2.64,1.312,3.253,3.253,0,0,1-1.624-.4,2.77,2.77,0,0,1-1.1-1.128,3.762,3.762,0,0,1,0-3.344,2.776,2.776,0,0,1,1.1-1.128,3.253,3.253,0,0,1,1.624-.4,3.317,3.317,0,0,1,2.64,1.312l2.016-1.824A5.328,5.328,0,0,0,147.6,272.9a6.779,6.779,0,0,0-2.768-.544,6.625,6.625,0,0,0-3.16.744,5.559,5.559,0,0,0-2.2,2.072,6.055,6.055,0,0,0,0,6.016,5.552,5.552,0,0,0,2.2,2.072,6.625,6.625,0,0,0,3.16.744m-13.184-2.672V279.28h4.976v-2.368h-4.976v-1.888H137.3v-2.448h-8.784v11.2H137.5v-2.448Zm-12.9,2.448h8.512v-2.512H121.92v-8.688h-3.168Zm-7.616-2.448V279.28h4.976v-2.368h-4.976v-1.888h5.648v-2.448H108v11.2h8.992v-2.448Z"/></g></svg>